<svg xmlns="http://www.w3.org/2000/svg" enable-background="new 0 0 1000 1000" viewBox="0 0 1000 1000"><rect width="1000" height="1000" fill="#f9b978"/><path fill="#d6925b" stroke="#d6925b" stroke-miterlimit="10" stroke-width="6" d="M233.75,654.224l-7.144-6.677
	c-1.799-1.681-2.856-4.306-2.856-7.092v-93.752c0-3.267,1.45-6.271,3.777-7.824l6.223-4.154V654.224z"/><path fill="none" stroke="#1f3250" stroke-linecap="round" stroke-linejoin="round" stroke-miterlimit="10" stroke-width="6" d="
	M233.75,641.224l-7.144-6.677c-1.799-1.681-2.856-4.306-2.856-7.092v-93.752c0-3.267,1.45-6.271,3.777-7.824l6.223-4.154V641.224z"/><path fill="#d6925b" stroke="#d6925b" stroke-miterlimit="10" stroke-width="6" d="M659.887,700.224H339.613
	c-5.082,0-8.877-4.678-7.828-9.651l17.293-82c0.78-3.701,4.046-6.349,7.828-6.349h285.689c3.782,0,7.047,2.649,7.828,6.349
	l17.293,82C668.764,695.546,664.969,700.224,659.887,700.224z"/><path fill="#d6925b" stroke="#d6925b" stroke-miterlimit="10" stroke-width="6" d="M753.75 687.776h-508c-6.627 0-12-5.373-12-12v-330c0-6.627 5.373-12 12-12h508c6.627 0 12 5.373 12 12v330C765.75 682.404 760.377 687.776 753.75 687.776zM765.75 647.974l7.144-6.677c1.799-1.681 2.856-4.306 2.856-7.092v-93.752c0-3.267-1.45-6.271-3.777-7.824l-6.223-4.154V647.974z"/><path fill="none" stroke="#1f3250" stroke-linecap="round" stroke-linejoin="round" stroke-miterlimit="10" stroke-width="6" d="
		M765.75,634.974l7.144-6.677c1.799-1.681,2.856-4.306,2.856-7.092v-93.752c0-3.267-1.45-6.271-3.777-7.824l-6.223-4.154V634.974z"/><path fill="#0c776d" d="M765.75,627.974l7.144-6.677c1.799-1.681,2.856-4.306,2.856-7.092v-93.752
		c0-3.267-1.45-6.271-3.777-7.824l-6.223-4.154V627.974z"/><path fill="none" stroke="#1f3250" stroke-linecap="round" stroke-linejoin="round" stroke-miterlimit="10" stroke-width="6" d="
		M765.75,627.974l7.144-6.677c1.799-1.681,2.856-4.306,2.856-7.092v-93.752c0-3.267-1.45-6.271-3.777-7.824l-6.223-4.154V627.974z"/><path fill="#1f3250" stroke="#1f3250" stroke-linecap="round" stroke-linejoin="round" stroke-miterlimit="10" stroke-width="6" d="
	M753.75,662.776h-508c-6.627,0-12-5.373-12-12v-330c0-6.627,5.373-12,12-12h508c6.627,0,12,5.373,12,12v330
	C765.75,657.404,760.377,662.776,753.75,662.776z"/><path fill="#1f3250" stroke="#1f3250" stroke-linecap="round" stroke-linejoin="round" stroke-miterlimit="10" stroke-width="6" d="
	M659.887,676.224H339.613c-5.082,0-8.877-4.678-7.828-9.651l17.293-82c0.78-3.701,4.046-6.349,7.828-6.349h285.689
	c3.782,0,7.047,2.649,7.828,6.349l17.293,82C668.764,671.546,664.969,676.224,659.887,676.224z"/><path fill="none" stroke="#5c290c" stroke-linecap="round" stroke-linejoin="round" stroke-miterlimit="10" stroke-width="6" d="
	M753.75,653.776h-508c-6.627,0-12-5.373-12-12v-330c0-6.627,5.373-12,12-12h508c6.627,0,12,5.373,12,12v330
	C765.75,648.404,760.377,653.776,753.75,653.776z"/><path fill="#0f8e85" d="M753.75,653.776h-508c-6.627,0-12-5.373-12-12v-330c0-6.627,5.373-12,12-12h508
	c6.627,0,12,5.373,12,12v330C765.75,648.404,760.377,653.776,753.75,653.776z"/><circle cx="265.448" cy="328.486" r="15.229" fill="#0c776d"/><circle cx="265.448" cy="328.486" r="10.5" fill="#beedc4"/><circle cx="265.448" cy="328.486" r="10.5" fill="none" stroke="#1f3250" stroke-linecap="round" stroke-linejoin="round" stroke-miterlimit="10" stroke-width="4"/><line x1="261.647" x2="269.249" y1="324.685" y2="332.286" fill="none" stroke="#1f3250" stroke-linecap="round" stroke-linejoin="round" stroke-miterlimit="10" stroke-width="4"/><line x1="269.249" x2="261.647" y1="324.685" y2="332.286" fill="none" stroke="#1f3250" stroke-linecap="round" stroke-linejoin="round" stroke-miterlimit="10" stroke-width="4"/><circle cx="734.052" cy="328.486" r="15.229" fill="#0c776d"/><circle cx="734.052" cy="328.486" r="10.5" fill="#beedc4"/><circle cx="734.052" cy="328.486" r="10.5" fill="none" stroke="#1f3250" stroke-linecap="round" stroke-linejoin="round" stroke-miterlimit="10" stroke-width="4"/><line x1="730.251" x2="737.853" y1="324.685" y2="332.286" fill="none" stroke="#1f3250" stroke-linecap="round" stroke-linejoin="round" stroke-miterlimit="10" stroke-width="4"/><line x1="737.853" x2="730.251" y1="324.685" y2="332.286" fill="none" stroke="#1f3250" stroke-linecap="round" stroke-linejoin="round" stroke-miterlimit="10" stroke-width="4"/><path fill="#0c776d" d="M677.435,632.224l-12.626-60.037c-1.795-8.516-9.415-14.963-18.117-14.963H352.809
	c-8.703,0-16.323,6.486-18.118,15l-12.601,60H677.435z"/><path fill="#0c776d" stroke="#0c776d" stroke-linecap="round" stroke-linejoin="round" stroke-miterlimit="10" stroke-width="6" d="
	M711.875,565.322h-424c-3.314,0-6-2.686-6-6v-182c0-11.046,8.954-20,20-20h396c11.046,0,20,8.954,20,20v182
	C717.875,562.635,715.189,565.322,711.875,565.322z"/><path fill="#0c776d" d="M753.75,653.776h-508c-6.627,0-12-5.373-12-12v-14.552h532v14.552
	C765.75,648.404,760.377,653.776,753.75,653.776z"/><path fill="#36b2a0" d="M765.75,315.776h-532v-4c0-6.627,5.373-12,12-12h508
	c6.627,0,12,5.373,12,12V315.776z" opacity=".86"/><path fill="none" stroke="#1f3250" stroke-linecap="round" stroke-linejoin="round" stroke-miterlimit="10" stroke-width="6" d="
	M753.75,653.776h-508c-6.627,0-12-5.373-12-12v-330c0-6.627,5.373-12,12-12h508c6.627,0,12,5.373,12,12v330
	C765.75,648.404,760.377,653.776,753.75,653.776z"/><path fill="#7dd9d6" d="M711.875,555.322h-424c-3.314,0-6-2.686-6-6v-182c0-11.046,8.954-20,20-20h396
	c11.046,0,20,8.954,20,20v182C717.875,552.635,715.189,555.322,711.875,555.322z"/><path fill="#32b94d" d="M711.875,555.322h-424c-3.314,0-6-2.686-6-6V407.89h436v141.431
	C717.875,552.635,715.189,555.322,711.875,555.322z" opacity=".64"/><path fill="none" stroke="#1f3250" stroke-linecap="round" stroke-linejoin="round" stroke-miterlimit="10" stroke-width="6" d="
	M711.875,555.322h-424c-3.314,0-6-2.686-6-6v-182c0-11.046,8.954-20,20-20h396c11.046,0,20,8.954,20,20v182
	C717.875,552.635,715.189,555.322,711.875,555.322z"/><path fill="#0f8e85" d="M659.887,667.224H339.613c-5.082,0-8.877-4.678-7.828-9.651l17.293-82
	c0.78-3.701,4.046-6.349,7.828-6.349h285.689c3.782,0,7.047,2.649,7.828,6.349l17.293,82
	C668.764,662.546,664.969,667.224,659.887,667.224z"/><line x1="347" x2="347" y1="589.224" y2="658.557" fill="none" stroke="#0c776d" stroke-linecap="round" stroke-linejoin="round" stroke-miterlimit="10" stroke-width="8"/><line x1="652" x2="652" y1="579.724" y2="661.891" fill="none" stroke="#0c776d" stroke-linecap="round" stroke-linejoin="round" stroke-miterlimit="10" stroke-width="8"/><line x1="365" x2="365" y1="569.224" y2="661.891" fill="none" stroke="#0c776d" stroke-linecap="round" stroke-linejoin="round" stroke-miterlimit="10" stroke-width="8"/><line x1="381.875" x2="381.875" y1="569.224" y2="661.891" fill="none" stroke="#0c776d" stroke-linecap="round" stroke-linejoin="round" stroke-miterlimit="10" stroke-width="8"/><line x1="398.75" x2="398.75" y1="569.224" y2="661.891" fill="none" stroke="#0c776d" stroke-linecap="round" stroke-linejoin="round" stroke-miterlimit="10" stroke-width="8"/><line x1="415.625" x2="415.625" y1="569.224" y2="661.891" fill="none" stroke="#0c776d" stroke-linecap="round" stroke-linejoin="round" stroke-miterlimit="10" stroke-width="8"/><line x1="432.5" x2="432.5" y1="569.224" y2="661.891" fill="none" stroke="#0c776d" stroke-linecap="round" stroke-linejoin="round" stroke-miterlimit="10" stroke-width="8"/><line x1="449.375" x2="449.375" y1="569.224" y2="661.891" fill="none" stroke="#0c776d" stroke-linecap="round" stroke-linejoin="round" stroke-miterlimit="10" stroke-width="8"/><line x1="466.25" x2="466.25" y1="569.224" y2="661.891" fill="none" stroke="#0c776d" stroke-linecap="round" stroke-linejoin="round" stroke-miterlimit="10" stroke-width="8"/><line x1="483.125" x2="483.125" y1="569.224" y2="661.891" fill="none" stroke="#0c776d" stroke-linecap="round" stroke-linejoin="round" stroke-miterlimit="10" stroke-width="8"/><line x1="500" x2="500" y1="569.224" y2="661.891" fill="none" stroke="#0c776d" stroke-linecap="round" stroke-linejoin="round" stroke-miterlimit="10" stroke-width="8"/><line x1="516.875" x2="516.875" y1="569.224" y2="661.891" fill="none" stroke="#0c776d" stroke-linecap="round" stroke-linejoin="round" stroke-miterlimit="10" stroke-width="8"/><line x1="533.75" x2="533.75" y1="569.224" y2="661.891" fill="none" stroke="#0c776d" stroke-linecap="round" stroke-linejoin="round" stroke-miterlimit="10" stroke-width="8"/><line x1="550.625" x2="550.625" y1="569.224" y2="661.891" fill="none" stroke="#0c776d" stroke-linecap="round" stroke-linejoin="round" stroke-miterlimit="10" stroke-width="8"/><line x1="567.5" x2="567.5" y1="569.224" y2="661.891" fill="none" stroke="#0c776d" stroke-linecap="round" stroke-linejoin="round" stroke-miterlimit="10" stroke-width="8"/><line x1="584.375" x2="584.375" y1="569.224" y2="661.891" fill="none" stroke="#0c776d" stroke-linecap="round" stroke-linejoin="round" stroke-miterlimit="10" stroke-width="8"/><line x1="601.25" x2="601.25" y1="569.224" y2="661.891" fill="none" stroke="#0c776d" stroke-linecap="round" stroke-linejoin="round" stroke-miterlimit="10" stroke-width="8"/><line x1="618.125" x2="618.125" y1="569.224" y2="661.891" fill="none" stroke="#0c776d" stroke-linecap="round" stroke-linejoin="round" stroke-miterlimit="10" stroke-width="8"/><line x1="635" x2="635" y1="569.224" y2="661.891" fill="none" stroke="#0c776d" stroke-linecap="round" stroke-linejoin="round" stroke-miterlimit="10" stroke-width="8"/><path fill="#0c776d" d="M664.76,643.563c-1.339,1.033-3.018,1.661-4.873,1.661H339.613
	c-1.855,0-3.534-0.628-4.873-1.661l-2.955,14.01c-1.049,4.973,2.745,9.651,7.828,9.651h320.274c5.083,0,8.877-4.678,7.828-9.651
	L664.76,643.563z"/><path fill="none" stroke="#1f3250" stroke-linecap="round" stroke-linejoin="round" stroke-miterlimit="10" stroke-width="6" d="
	M659.887,667.224H339.613c-5.082,0-8.877-4.678-7.828-9.651l17.293-82c0.78-3.701,4.046-6.349,7.828-6.349h285.689
	c3.782,0,7.047,2.649,7.828,6.349l17.293,82C668.764,662.546,664.969,667.224,659.887,667.224z"/><path fill="#0f8e85" d="M637.875,491.322h-276c-6.627,0-12-5.373-12-12v-56c0-6.627,5.373-12,12-12h276
	c6.627,0,12,5.373,12,12v56C649.875,485.949,644.502,491.322,637.875,491.322z"/><path fill="#0c776d" d="M637.875,411.322h-276c-6.627,0-12,5.373-12,12v15c0-6.627,5.373-12,12-12h276
	c6.627,0,12,5.373,12,12v-15C649.875,416.694,644.502,411.322,637.875,411.322z"/><path fill="none" stroke="#1f3250" stroke-linecap="round" stroke-linejoin="round" stroke-miterlimit="10" stroke-width="6" d="
	M637.875,491.322h-276c-6.627,0-12-5.373-12-12v-56c0-6.627,5.373-12,12-12h276c6.627,0,12,5.373,12,12v56
	C649.875,485.949,644.502,491.322,637.875,491.322z"/><path fill="none" stroke="#0c776d" stroke-linecap="round" stroke-linejoin="round" stroke-miterlimit="10" stroke-width="6" d="
	M347,586.224"/><circle cx="391.333" cy="631.891" r="18.167" fill="#0c776d"/><circle cx="391.333" cy="631.891" r="11.333" fill="none" stroke="#1f3250" stroke-linecap="round" stroke-linejoin="round" stroke-miterlimit="10" stroke-width="6"/><circle cx="608.333" cy="631.891" r="18.167" fill="#0c776d"/><circle cx="608.333" cy="631.891" r="11.333" fill="none" stroke="#1f3250" stroke-linecap="round" stroke-linejoin="round" stroke-miterlimit="10" stroke-width="6"/><circle cx="450.917" cy="601.307" r="14.75" fill="#0c776d"/><circle cx="450.917" cy="601.307" r="9.202" fill="none" stroke="#1f3250" stroke-linecap="round" stroke-linejoin="round" stroke-miterlimit="10" stroke-width="6"/><circle cx="547.917" cy="601.307" r="14.75" fill="#0c776d"/><circle cx="547.917" cy="601.307" r="9.202" fill="none" stroke="#1f3250" stroke-linecap="round" stroke-linejoin="round" stroke-miterlimit="10" stroke-width="6"/><g><circle cx="403.892" cy="451.322" r="28.716" fill="#1f3250"/><defs><filter id="a" width="69.764" height="69.764" x="369.01" y="416.439" filterUnits="userSpaceOnUse"><feColorMatrix color-interpolation-filters="sRGB" result="source" values="-1 0 0 0 1  0 -1 0 0 1  0 0 -1 0 1  0 0 0 1 0"/></filter></defs><mask id="b" width="69.764" height="69.764" x="369.01" y="416.439" maskUnits="userSpaceOnUse"><g filter="url(#a)"><circle cx="403.892" cy="451.322" r="26.472"/></g></mask><g mask="url(#b)"><line x1="403.892" x2="403.892" y1="420.439" y2="482.204" fill="none" stroke="#0c776d" stroke-linecap="round" stroke-linejoin="round" stroke-miterlimit="10" stroke-width="8"/><line x1="434.774" x2="373.01" y1="451.322" y2="451.322" fill="none" stroke="#0c776d" stroke-linecap="round" stroke-linejoin="round" stroke-miterlimit="10" stroke-width="8"/><line x1="425.729" x2="382.055" y1="429.485" y2="473.159" fill="none" stroke="#0c776d" stroke-linecap="round" stroke-linejoin="round" stroke-miterlimit="10" stroke-width="8"/><line x1="425.729" x2="382.055" y1="473.159" y2="429.485" fill="none" stroke="#0c776d" stroke-linecap="round" stroke-linejoin="round" stroke-miterlimit="10" stroke-width="8"/></g><circle cx="403.892" cy="451.322" r="17.431" fill="#0c776d"/><circle cx="403.892" cy="451.322" r="28.716" fill="none" stroke="#1f3250" stroke-linecap="round" stroke-linejoin="round" stroke-miterlimit="10" stroke-width="8"/></g><g><circle cx="595.608" cy="451.322" r="28.716" fill="#1f3250"/><defs><filter id="c" width="69.764" height="69.764" x="560.726" y="416.439" filterUnits="userSpaceOnUse"><feColorMatrix color-interpolation-filters="sRGB" result="source" values="-1 0 0 0 1  0 -1 0 0 1  0 0 -1 0 1  0 0 0 1 0"/></filter></defs><mask id="d" width="69.764" height="69.764" x="560.726" y="416.439" maskUnits="userSpaceOnUse"><g filter="url(#c)"><circle cx="595.608" cy="451.322" r="26.472"/></g></mask><g mask="url(#d)"><line x1="595.608" x2="595.608" y1="420.439" y2="482.204" fill="none" stroke="#0c776d" stroke-linecap="round" stroke-linejoin="round" stroke-miterlimit="10" stroke-width="8"/><line x1="626.49" x2="564.726" y1="451.322" y2="451.322" fill="none" stroke="#0c776d" stroke-linecap="round" stroke-linejoin="round" stroke-miterlimit="10" stroke-width="8"/><line x1="617.445" x2="573.771" y1="429.485" y2="473.159" fill="none" stroke="#0c776d" stroke-linecap="round" stroke-linejoin="round" stroke-miterlimit="10" stroke-width="8"/><line x1="617.445" x2="573.771" y1="473.159" y2="429.485" fill="none" stroke="#0c776d" stroke-linecap="round" stroke-linejoin="round" stroke-miterlimit="10" stroke-width="8"/></g><circle cx="595.608" cy="451.322" r="17.431" fill="#0c776d"/><circle cx="595.608" cy="451.322" r="28.716" fill="none" stroke="#1f3250" stroke-linecap="round" stroke-linejoin="round" stroke-miterlimit="10" stroke-width="8"/></g><path fill="#f9b978" d="M546.851,473.119h-94.202c-3.314,0-6-2.686-6-6v-36c0-3.314,2.686-6,6-6h94.202
	c3.314,0,6,2.686,6,6v36C552.851,470.432,550.165,473.119,546.851,473.119z"/><g><circle cx="265.448" cy="620.557" r="15.229" fill="#0c776d"/><circle cx="265.448" cy="620.557" r="10.5" fill="none" stroke="#1f3250" stroke-linecap="round" stroke-linejoin="round" stroke-miterlimit="10" stroke-width="4"/><line x1="261.647" x2="269.249" y1="616.756" y2="624.358" fill="none" stroke="#1f3250" stroke-linecap="round" stroke-linejoin="round" stroke-miterlimit="10" stroke-width="4"/><line x1="269.249" x2="261.647" y1="616.756" y2="624.358" fill="none" stroke="#1f3250" stroke-linecap="round" stroke-linejoin="round" stroke-miterlimit="10" stroke-width="4"/></g><g><circle cx="734.052" cy="620.557" r="15.229" fill="#0c776d"/><circle cx="734.052" cy="620.557" r="10.5" fill="none" stroke="#1f3250" stroke-linecap="round" stroke-linejoin="round" stroke-miterlimit="10" stroke-width="4"/><line x1="730.251" x2="737.853" y1="616.756" y2="624.358" fill="none" stroke="#1f3250" stroke-linecap="round" stroke-linejoin="round" stroke-miterlimit="10" stroke-width="4"/><line x1="737.853" x2="730.251" y1="616.756" y2="624.358" fill="none" stroke="#1f3250" stroke-linecap="round" stroke-linejoin="round" stroke-miterlimit="10" stroke-width="4"/></g><g><circle cx="499.75" cy="594.724" r="10.25" fill="#0c776d"/><circle cx="499.75" cy="594.724" r="7.067" fill="none" stroke="#1f3250" stroke-linecap="round" stroke-linejoin="round" stroke-miterlimit="10" stroke-width="3"/><line x1="496.625" x2="502.875" y1="594.724" y2="594.724" fill="none" stroke="#1f3250" stroke-linecap="round" stroke-linejoin="round" stroke-miterlimit="10" stroke-width="3"/><line x1="499.75" x2="499.75" y1="591.599" y2="597.849" fill="none" stroke="#1f3250" stroke-linecap="round" stroke-linejoin="round" stroke-miterlimit="10" stroke-width="3"/></g><path fill="#1f3250" d="M446.649 431.119v36c0 3.314 2.686 6 6 6h36.106c1.785-6.969 2.735-14.272 2.735-21.797 0-9.128-1.398-17.929-3.988-26.203h-34.853C449.335 425.119 446.649 427.805 446.649 431.119zM540.141 473.119h6.71c3.314 0 6-2.686 6-6v-36c0-3.314-2.686-6-6-6h-4.777c-3.879 7.909-6.064 16.8-6.064 26.203C536.01 459.018 537.485 466.365 540.141 473.119z"/><path fill="#7db9f9" d="M546.851,472.119h-94.202c-3.314,0-6-2.686-6-6v-34c0-3.314,2.686-6,6-6
	h94.202c3.314,0,6,2.686,6,6v34C552.851,469.432,550.165,472.119,546.851,472.119z" opacity=".51"/><polygon fill="#fff" points="479.029 472.119 524.671 426.119 505.888 426.119 460.246 472.119" opacity=".43"/><polygon fill="#fff" points="498.703 472.119 544.345 426.119 534.953 426.119 489.311 472.119" opacity=".43"/><path fill="none" stroke="#1f3250" stroke-linecap="round" stroke-linejoin="round" stroke-miterlimit="10" stroke-width="6" d="
	M546.851,473.119h-94.202c-3.314,0-6-2.686-6-6v-36c0-3.314,2.686-6,6-6h94.202c3.314,0,6,2.686,6,6v36
	C552.851,470.432,550.165,473.119,546.851,473.119z"/><line x1="533.072" x2="572.534" y1="510.557" y2="510.557" fill="none" stroke="#1f3250" stroke-linecap="round" stroke-linejoin="round" stroke-miterlimit="10" stroke-width="6" opacity=".36"/><line x1="426.966" x2="521.108" y1="510.557" y2="510.557" fill="none" stroke="#1f3250" stroke-linecap="round" stroke-linejoin="round" stroke-miterlimit="10" stroke-width="6" opacity=".36"/><line x1="426.966" x2="572.534" y1="527.224" y2="527.224" fill="none" stroke="#1f3250" stroke-linecap="round" stroke-linejoin="round" stroke-miterlimit="10" stroke-width="6" opacity=".36"/><path fill="#6dd2b9" d="M363.222,401.89h-30.5c-3.36,0-6.083-2.724-6.083-6.083v-30.5
	c0-3.36,2.724-6.083,6.083-6.083h30.5c3.36,0,6.083,2.724,6.083,6.083v30.5C369.305,399.167,366.581,401.89,363.222,401.89z"/><g><path fill="#32b94d" d="M352.069,386.462h-10.292l-1.769,5.022h-4.209l8.807-24.618h4.669l8.807,24.618h-4.245
		L352.069,386.462z M346.94,371.749l-4.032,11.424h8.029L346.94,371.749z"/></g><path fill="#0c776d" d="M233.75,634.224l-7.144-6.677c-1.799-1.681-2.856-4.306-2.856-7.092v-93.752
	c0-3.267,1.45-6.271,3.777-7.824l6.223-4.154V634.224z"/><line x1="364.972" x2="672.862" y1="368.557" y2="368.557" fill="none" stroke="#6dd2b9" stroke-linecap="round" stroke-linejoin="round" stroke-miterlimit="10" stroke-width="6"/><line x1="364.972" x2="672.862" y1="380.557" y2="380.557" fill="none" stroke="#6dd2b9" stroke-linecap="round" stroke-linejoin="round" stroke-miterlimit="10" stroke-width="6"/><line x1="364.972" x2="672.862" y1="392.557" y2="392.557" fill="none" stroke="#6dd2b9" stroke-linecap="round" stroke-linejoin="round" stroke-miterlimit="10" stroke-width="6"/><path fill="none" stroke="#1f3250" stroke-linecap="round" stroke-linejoin="round" stroke-miterlimit="10" stroke-width="6" d="
	M233.75,634.224l-7.144-6.677c-1.799-1.681-2.856-4.306-2.856-7.092v-93.752c0-3.267,1.45-6.271,3.777-7.824l6.223-4.154V634.224z"/></svg>